<?xml version="1.0" encoding="UTF-8"?>
<!DOCTYPE svg PUBLIC "-//W3C//DTD SVG 1.1//EN" "http://www.w3.org/Graphics/SVG/1.1/DTD/svg11.dtd">
<!-- Creator: CorelDRAW 2020 (64-Bit) -->
<svg xmlns="http://www.w3.org/2000/svg" xml:space="preserve" width="32px" height="33px" version="1.1" style="shape-rendering:geometricPrecision; text-rendering:geometricPrecision; image-rendering:optimizeQuality; fill-rule:evenodd; clip-rule:evenodd"
viewBox="0 0 1.23 1.26"
 xmlns:xlink="http://www.w3.org/1999/xlink"
 xmlns:xodm="http://www.corel.com/coreldraw/odm/2003">
 <defs>
  <style type="text/css">
   <![CDATA[
    .fil0 {fill:white;fill-rule:nonzero}
   ]]>
  </style>
 </defs>
 <g id="Слой_x0020_1">
  <metadata id="CorelCorpID_0Corel-Layer"/>
  <g id="_949082240">
   <path id="XMLID_9_" class="fil0" d="M0.65 1.18c-0.31,0 -0.57,-0.25 -0.57,-0.57 0,-0.32 0.26,-0.57 0.57,-0.57 0.32,0 0.58,0.25 0.58,0.57 0,0.2 -0.12,0.39 -0.29,0.5l-0.02 -0.04c0.16,-0.09 0.27,-0.27 0.27,-0.46 0,-0.29 -0.24,-0.53 -0.54,-0.53 -0.29,0 -0.53,0.24 -0.53,0.53 0,0.3 0.24,0.54 0.53,0.54l0 0.03z"/>
   <path id="XMLID_1_" class="fil0" d="M0.65 1.22c-0.34,0 -0.61,-0.27 -0.61,-0.61 0,-0.34 0.28,-0.61 0.61,-0.61l0 0.12c-0.27,0 -0.49,0.22 -0.49,0.49 0,0.27 0.22,0.5 0.49,0.5l0 0.11z"/>
   <path id="XMLID_72_" class="fil0" d="M0.65 1.26c-0.36,0 -0.65,-0.29 -0.65,-0.65l0.19 0c0,0.25 0.21,0.45 0.46,0.45l0 0.2 0 0z"/>
  </g>
 </g>
</svg>
