<?xml version="1.0" encoding="UTF-8"?>
<!DOCTYPE svg PUBLIC "-//W3C//DTD SVG 1.1//EN" "http://www.w3.org/Graphics/SVG/1.1/DTD/svg11.dtd">
<!-- Creator: CorelDRAW 2020 (64-Bit) -->
<svg xmlns="http://www.w3.org/2000/svg" xml:space="preserve" width="407px" height="419px" version="1.1" style="shape-rendering:geometricPrecision; text-rendering:geometricPrecision; image-rendering:optimizeQuality; fill-rule:evenodd; clip-rule:evenodd"
viewBox="0 0 383.32 395.15"
 xmlns:xlink="http://www.w3.org/1999/xlink"
 xmlns:xodm="http://www.corel.com/coreldraw/odm/2003">
 <defs>
  <style type="text/css">
   <![CDATA[
    .fil0 {fill:#b8b8b8;fill-rule:nonzero}
   ]]>
  </style>
 </defs>
 <g id="Слой_x0020_1">
  <metadata id="CorelCorpID_0Corel-Layer"/>
  <path id="XMLID_9_" class="fil0" d="M203.91 11.09c98.79,0 179.41,80.78 179.41,179.75 0,64.14 -34.78,123.53 -90.1,156l-6.32 -10.3c51.36,-30.08 83.77,-85.51 83.77,-144.91 0,-92.64 -75.08,-167.07 -166.76,-167.07l0 11.88c-85.09,0 -154.46,69.25 -154.89,154.4l11.84 0c0,78.39 64.01,142.54 142.26,142.54l0.18 13.46 0.61 0 0 11.87 0 11.88 0 12.68 -0.14 0 0.14 11.88 0 0c-112.24,0 -203.91,-91.87 -203.91,-204.31l12.67 0c0.43,-105.74 86.38,-190.84 191.24,-190.84l0 11.09z"/>
 </g>
</svg>
