<?xml version="1.0" encoding="UTF-8"?>
<!DOCTYPE svg PUBLIC "-//W3C//DTD SVG 1.1//EN" "http://www.w3.org/Graphics/SVG/1.1/DTD/svg11.dtd">
<!-- Creator: CorelDRAW 2020 (64-Bit) -->
<svg xmlns="http://www.w3.org/2000/svg" xml:space="preserve" width="106px" height="26px" version="1.1" style="shape-rendering:geometricPrecision; text-rendering:geometricPrecision; image-rendering:optimizeQuality; fill-rule:evenodd; clip-rule:evenodd"
viewBox="0 0 7.17 1.75"
 xmlns:xlink="http://www.w3.org/1999/xlink"
 xmlns:xodm="http://www.corel.com/coreldraw/odm/2003">
 <defs>
  <style type="text/css">
   <![CDATA[
    .fil0 {fill:black;fill-rule:nonzero}
   ]]>
  </style>
 </defs>
 <g id="Слой_x0020_1">
  <metadata id="CorelCorpID_0Corel-Layer"/>
  <g id="_947034624">
   <g id="logo.svg">
    <g>
     <g id="XMLID_114_">
      <path id="XMLID_9_" class="fil0" d="M0.91 1.64c-0.44,0 -0.8,-0.36 -0.8,-0.79 0,-0.44 0.36,-0.8 0.8,-0.8 0.43,0 0.79,0.36 0.79,0.8 0,0.28 -0.15,0.54 -0.4,0.69l-0.03 -0.05c0.23,-0.13 0.38,-0.38 0.38,-0.64 0,-0.41 -0.34,-0.74 -0.74,-0.74 -0.41,0 -0.75,0.33 -0.75,0.74 0,0.41 0.34,0.74 0.75,0.74l0 0.05z"/>
     </g>
     <g id="XMLID_136_">
      <path id="XMLID_1_" class="fil0" d="M0.91 1.7c-0.47,0 -0.85,-0.38 -0.85,-0.85 0,-0.47 0.38,-0.85 0.85,-0.85l0 0.16c-0.38,0 -0.69,0.31 -0.69,0.69 0,0.38 0.31,0.69 0.69,0.69l0 0.16z"/>
     </g>
     <g id="XMLID_135_">
      <path id="XMLID_72_" class="fil0" d="M0.91 1.75c-0.5,0 -0.91,-0.41 -0.91,-0.9l0.27 0c0,0.34 0.28,0.63 0.63,0.63l0.01 0.27 0 0z"/>
     </g>
    </g>
   </g>
   <g id="logoname.svg">
    <g id="XMLID_146_">
     <g id="XMLID_75_">
      <polygon id="XMLID_83_" class="fil0" points="2.32,1.18 2.32,0.57 2.76,0.57 2.76,0.66 2.42,0.66 2.42,0.83 2.69,0.83 2.69,0.92 2.42,0.92 2.42,1.09 2.76,1.09 2.76,1.18 2.32,1.18 "/>
      <polygon id="XMLID_81_" class="fil0" points="3.75,1.18 3.75,0.57 3.83,0.57 4.17,1.01 4.17,0.57 4.27,0.57 4.27,1.18 4.19,1.18 3.84,0.74 3.84,1.18 "/>
      <path id="XMLID_79_" class="fil0" d="M5.23 1.13l0 -0.11c0.02,0.03 0.05,0.04 0.09,0.06 0.05,0.01 0.09,0.02 0.13,0.02 0.08,0 0.14,-0.03 0.14,-0.09 0,-0.03 -0.01,-0.05 -0.03,-0.06 0,0 -0.01,-0.01 -0.02,-0.02 -0.03,-0.01 -0.05,-0.01 -0.09,-0.03l-0.01 0c-0.03,-0.01 -0.06,-0.02 -0.08,-0.02 -0.02,-0.01 -0.04,-0.02 -0.06,-0.03 -0.05,-0.03 -0.06,-0.07 -0.06,-0.13 0,-0.1 0.08,-0.16 0.22,-0.16 0.07,0 0.14,0.01 0.19,0.05l0 0.1c-0.06,-0.04 -0.12,-0.06 -0.19,-0.06 -0.08,0 -0.12,0.03 -0.12,0.08 0,0.02 0.01,0.04 0.03,0.05 0.01,0.01 0.04,0.02 0.06,0.03l0.07 0.01c0.05,0.02 0.07,0.03 0.11,0.05 0.05,0.03 0.08,0.07 0.08,0.14 0,0.05 -0.02,0.1 -0.06,0.13 -0.05,0.03 -0.1,0.05 -0.17,0.05 -0.1,0 -0.17,-0.02 -0.23,-0.06z"/>
      <path id="XMLID_76_" class="fil0" d="M6.86 1.19c-0.09,0 -0.16,-0.03 -0.22,-0.09 -0.06,-0.06 -0.09,-0.14 -0.09,-0.22 0,-0.09 0.03,-0.17 0.09,-0.23 0.06,-0.06 0.13,-0.09 0.22,-0.09 0.09,0 0.16,0.03 0.22,0.09 0.06,0.06 0.09,0.14 0.09,0.23 0,0.08 -0.03,0.16 -0.09,0.22 -0.05,0.06 -0.13,0.09 -0.22,0.09zm0 -0.09c0.06,0 0.11,-0.02 0.15,-0.06 0.04,-0.05 0.06,-0.1 0.06,-0.16 0,-0.07 -0.02,-0.12 -0.06,-0.17 -0.04,-0.04 -0.09,-0.06 -0.15,-0.06 -0.06,0 -0.11,0.02 -0.15,0.06 -0.04,0.05 -0.06,0.1 -0.06,0.17 0,0.06 0.01,0.11 0.06,0.16 0.04,0.04 0.09,0.06 0.15,0.06z"/>
     </g>
    </g>
   </g>
  </g>
 </g>
</svg>
